<svg width="24" height="24" viewBox="0 0 24 24" fill="none" xmlns="http://www.w3.org/2000/svg">
<path d="M14.358 16.0481C12.6663 17.843 9.64293 17.1305 8.92907 14.7687C8.21553 12.4079 10.3396 10.1531 12.744 10.7174C15.4755 8.38584 19.7188 4.77876 22.1767 2.78109C23.0338 2.08406 23.7683 2.87114 23.1006 3.70321C21.1517 6.13368 17.5026 10.3996 15.1457 13.1353C15.3727 14.1198 15.1466 15.2115 14.358 16.0481ZM20.3252 11.9987C20.3252 11.2914 19.5528 10.8471 18.9383 11.2006C18.3237 11.5542 18.3237 12.4431 18.9383 12.7967C19.5528 13.1504 20.3252 12.7059 20.3252 11.9987ZM6.46602 8.31023C6.46602 7.60298 5.69364 7.15856 5.07906 7.51218C4.46449 7.86581 4.46449 8.7546 5.07906 9.10828C5.69364 9.46195 6.46602 9.01743 6.46602 8.31023ZM5.54212 11.9987C5.54212 11.2914 4.76973 10.8471 4.15515 11.2006C3.54058 11.5542 3.54053 12.4431 4.15515 12.7967C4.76978 13.1504 5.54212 12.7059 5.54212 11.9987ZM9.23788 5.54385C9.23788 4.83665 8.4655 4.39223 7.85092 4.74581C7.23635 5.09939 7.23635 5.98828 7.85092 6.3419C8.4655 6.69553 9.23788 6.25106 9.23788 5.54385ZM16.6294 5.54385C16.6294 4.83665 15.857 4.39223 15.2425 4.74581C14.6279 5.09939 14.6279 5.98828 15.2425 6.3419C15.857 6.69553 16.6294 6.25106 16.6294 5.54385ZM12.9336 4.62173C12.9336 3.91453 12.1613 3.4701 11.5467 3.82373C10.9321 4.17735 10.9321 5.06615 11.5467 5.41978C12.1613 5.7734 12.9336 5.32898 12.9336 4.62173ZM20.9074 9.54534C21.9981 13.5745 20.3196 18.2071 16.0817 20.2814C9.71945 23.3955 2.3204 18.4314 2.79539 11.3674C3.27014 4.30424 11.2643 0.390604 17.1513 4.33818L19.4476 2.58651C12.2152 -3.12385 1.45727 1.14618 0.129861 10.2542C-1.19764 19.3622 7.89206 26.5389 16.452 23.1413C23.1677 20.4757 25.6411 12.8557 22.9025 6.93829L20.9074 9.54534Z" fill="white"/>
</svg>
